<svg xmlns="http://www.w3.org/2000/svg" viewBox="0 0 128 128">
  <circle cx="64" cy="64" r="64"  fill="#fff"/>
    <path d="M64,4.52C31.2,4.52,4.52,31.2,4.52,64s26.68,59.48,59.48,59.48,59.48-26.68,59.48-59.48S96.8,4.52,64,4.52ZM84.69,83.93c-.85,0-1.53.69-1.53,1.53v8.43h-10.73v-8.43c0-.85-.69-1.53-1.53-1.53s-1.53.69-1.53,1.53v8.43H24.91v-12.26h25.29c.85,0,1.53-.69,1.53-1.53s-.69-1.53-1.53-1.53h-25.29v-29.89h45.99v15.33c0,1.27,1.03,2.3,2.3,2.3h46.23c-.42,10.13-3.56,19.56-8.72,27.59h-24.48v-8.43c0-.85-.69-1.53-1.53-1.53ZM87.24,42.78c-.63-.06-1.1-.61-1.05-1.25.06-.63.62-1.1,1.25-1.05l3.63.32,2.76-5.38c.29-.57.98-.79,1.55-.5.57.29.79.98.5,1.55l-2.33,4.55,10.1.88,2.34-4.57c.29-.57.98-.79,1.55-.5.57.29.79.98.5,1.55l-1.91,3.74,1.49.13c.63.05,1.1.61,1.05,1.25-.05.6-.55,1.05-1.14,1.05-.03,0-.07,0-.1,0l-2.42-.21-3.87,7.56,1.66.14c.63.05,1.1.61,1.05,1.25-.05.6-.55,1.05-1.14,1.05-.03,0-.07,0-.1,0l-2.59-.23-2.52,4.91c-.2.4-.61.63-1.02.63-.18,0-.36-.04-.52-.13-.57-.29-.79-.98-.5-1.55l2.09-4.08-10.1-.88-2.1,4.1c-.2.4-.61.63-1.02.63-.18,0-.36-.04-.52-.13-.57-.29-.79-.98-.5-1.55l1.67-3.27-2.53-.22c-.63-.05-1.1-.61-1.05-1.25.05-.63.62-1.1,1.25-1.05l3.46.3.98-1.91.79-1.53.79-1.53,1.33-2.59-2.69-.24ZM70.9,8.96v6.75c0,1.27,1.03,2.3,2.3,2.3h21.81c4.15,2.81,7.89,6.17,11.14,9.96h-32.95c-1.27,0-2.3,1.03-2.3,2.3v15.33H24.91v-20.94c10.04-9.98,23.85-16.15,39.09-16.15,2.34,0,4.64.16,6.9.44ZM21.84,27.98v72.03c-8.3-9.7-13.33-22.28-13.33-36.02s5.03-26.32,13.33-36.02ZM64,119.48c-15.23,0-29.05-6.17-39.09-16.15v-6.38h44.46v6.9c0,.85.69,1.53,1.53,1.53s1.53-.69,1.53-1.53v-6.9h10.73v7.66c0,.85.69,1.53,1.53,1.53s1.53-.69,1.53-1.53v-7.66h22.38c-10.12,13.66-26.34,22.53-44.6,22.53Z"/>
    <polygon points="98.63 51.68 100.18 48.66 101.34 46.37 102.5 44.11 92.4 43.23 91.19 45.6 90.4 47.14 89.62 48.67 88.53 50.8 98.63 51.68"/>
    <circle cx="47.9" cy="62.08" r="3.83"/>
</svg>