<svg id="layer1" xmlns="http://www.w3.org/2000/svg" xmlns:xlink="http://www.w3.org/1999/xlink" viewBox="0 0 167 167"><defs><style>.cls-1,.cls-3,.cls-6,.cls-7,.cls-8,.cls-9{fill:none;}.cls-2{fill:#fff;}.cls-3,.cls-6,.cls-7,.cls-8{stroke:#000;stroke-width:4px;}.cls-3{stroke-miterlimit:10;}.cls-4{clip-path:url(#clip-path);}.cls-5{clip-path:url(#clip-path-2);}.cls-6,.cls-7,.cls-8,.cls-9{stroke-linejoin:round;}.cls-7,.cls-9{stroke-linecap:round;}.cls-8{stroke-linecap:square;}.cls-9{stroke:#fff;stroke-width:3px;}</style><clipPath id="clip-path"><circle class="cls-1" cx="83" cy="83" r="75"/></clipPath><clipPath id="clip-path-2"><rect class="cls-1" x="-370" y="-289" width="1366" height="768"/></clipPath></defs><circle class="cls-2" cx="83.5" cy="83.5" r="83.5"/><circle class="cls-3" cx="83" cy="83" r="75"/><g class="cls-4"><g class="cls-5"><line class="cls-6" x1="30" y1="124" x2="230" y2="124"/><line class="cls-7" x1="30" y1="61" x2="130" y2="61"/><line class="cls-7" x1="30" y1="-1" x2="130" y2="-1"/><line class="cls-8" x1="30" y1="311" x2="30" y2="-123"/><g class="cls-5"><rect x="94" y="163" width="134" height="46" rx="1"/><path d="M226,207H96V165H226Zm1-46H95a3,3,0,0,0-3,3v44a3,3,0,0,0,3,3H227a3,3,0,0,0,3-3V164a3,3,0,0,0-3-3"/><rect x="94" y="38" width="134" height="46" rx="1"/><path d="M226,82H96V40H226Zm1-46H95a3,3,0,0,0-3,3V83a3,3,0,0,0,3,3H227a3,3,0,0,0,3-3V39a3,3,0,0,0-3-3"/><rect x="94" y="-25" width="134" height="46" rx="1"/><path d="M226,19H96V-23H226Zm1-46H95a3,3,0,0,0-3,3V20a3,3,0,0,0,3,3H227a3,3,0,0,0,3-3V-24a3,3,0,0,0-3-3"/><line class="cls-7" x1="30" y1="104" x2="65" y2="104"/><path d="M62,83.5a3,3,0,1,1,3-3,3,3,0,0,1-3,3"/><path d="M62,79.5a1,1,0,1,1-1,1,1,1,0,0,1,1-1m0-4a5,5,0,1,0,5,5,5,5,0,0,0-5-5"/><line class="cls-7" x1="92" y1="135" x2="92" y2="111"/><line class="cls-7" x1="110" y1="136" x2="110" y2="111"/><line class="cls-9" x1="139.1" y1="48.9" x2="125.31" y2="75.81"/><line class="cls-9" x1="113.45" y1="53.82" x2="139.75" y2="56.12"/><line class="cls-9" x1="123.23" y1="46.41" x2="109.45" y2="73.32"/><line class="cls-9" x1="107.13" y1="66.59" x2="133.43" y2="68.89"/></g></g></g></svg>