<?xml version="1.0" encoding="UTF-8"?><svg id="a" xmlns="http://www.w3.org/2000/svg" xmlns:xlink="http://www.w3.org/1999/xlink" viewBox="0 0 1200 630"><defs><style>.e{stroke-linecap:square;}.e,.f,.g,.h,.i,.j{fill:none;}.e,.f,.g,.j{stroke:#000;stroke-width:3.34px;}.e,.g,.h,.j{stroke-linejoin:round;}.f{stroke-miterlimit:10;}.k{fill:#fff;}.l{clip-path:url(#d);}.m{clip-path:url(#b);}.g,.h{stroke-linecap:round;}.h{stroke:#fff;stroke-width:2.51px;}.n{clip-path:url(#c);}</style><clipPath id="b"><rect class="i" x="973" y="435" width="139.59" height="139.59"/></clipPath><clipPath id="c"><rect class="i" x="973" y="435" width="139.59" height="139.59"/></clipPath><clipPath id="d"><path class="i" d="M979.69,504.38c0,34.62,28.07,62.69,62.69,62.69s62.69-28.07,62.69-62.69-28.07-62.69-62.69-62.69-62.69,28.07-62.69,62.69"/></clipPath></defs><rect class="k" width="1200" height="630"/><g class="m"><g class="n"><path class="k" d="M1112.59,504.8c0,38.55-31.25,69.8-69.8,69.8s-69.8-31.25-69.8-69.8,31.25-69.8,69.8-69.8,69.8,31.25,69.8,69.8"/><circle class="f" cx="1042.38" cy="504.38" r="62.69"/></g><g class="l"><line class="g" x1="998.08" y1="590.47" x2="1081.66" y2="590.47"/><line class="j" x1="998.08" y1="538.65" x2="1165.25" y2="538.65"/><line class="g" x1="998.08" y1="485.99" x2="1081.66" y2="485.99"/><line class="g" x1="998.08" y1="434.16" x2="1081.66" y2="434.16"/><line class="g" x1="998.08" y1="381.5" x2="1081.66" y2="381.5"/><line class="e" x1="998.08" y1="694.96" x2="998.08" y2="332.19"/><rect x="1051.57" y="623.91" width="112.01" height="38.45" rx=".84" ry=".84"/><path d="M1161.91,660.68h-108.66v-35.11h108.66v35.11Zm.84-38.45h-110.33c-1.39,0-2.51,1.12-2.51,2.51v36.78c0,1.39,1.12,2.51,2.51,2.51h110.33c1.39,0,2.51-1.12,2.51-2.51v-36.78c0-1.39-1.12-2.51-2.51-2.51"/><rect x="1051.57" y="571.25" width="112.01" height="38.45" rx=".84" ry=".84"/><path d="M1161.91,608.02h-108.66v-35.11h108.66v35.11Zm.84-38.45h-110.33c-1.39,0-2.51,1.12-2.51,2.51v36.78c0,1.39,1.12,2.51,2.51,2.51h110.33c1.39,0,2.51-1.12,2.51-2.51v-36.78c0-1.39-1.12-2.51-2.51-2.51"/><rect x="1051.57" y="466.76" width="112.01" height="38.45" rx=".84" ry=".84"/><path d="M1161.91,503.54h-108.66v-35.11h108.66v35.11Zm.84-38.45h-110.33c-1.39,0-2.51,1.12-2.51,2.51v36.78c0,1.39,1.12,2.51,2.51,2.51h110.33c1.39,0,2.51-1.12,2.51-2.51v-36.78c0-1.39-1.12-2.51-2.51-2.51"/><rect x="1051.57" y="414.1" width="112.01" height="38.45" rx=".84" ry=".84"/><path d="M1161.91,450.88h-108.66v-35.11h108.66v35.11Zm.84-38.45h-110.33c-1.39,0-2.51,1.12-2.51,2.51v36.78c0,1.39,1.12,2.51,2.51,2.51h110.33c1.39,0,2.51-1.12,2.51-2.51v-36.78c0-1.39-1.12-2.51-2.51-2.51"/><rect x="1051.57" y="362.28" width="112.01" height="38.45" rx=".84" ry=".84"/><path d="M1161.91,399.06h-108.66v-35.11h108.66v35.11Zm.84-38.45h-110.33c-1.39,0-2.51,1.12-2.51,2.51v36.78c0,1.39,1.12,2.51,2.51,2.51h110.33c1.39,0,2.51-1.12,2.51-2.51v-36.78c0-1.39-1.12-2.51-2.51-2.51"/><line class="g" x1="998.08" y1="521.93" x2="1027.33" y2="521.93"/><path d="M1024.82,504.8c-1.38,0-2.51-1.13-2.51-2.51s1.13-2.51,2.51-2.51,2.51,1.13,2.51,2.51-1.13,2.51-2.51,2.51"/><path d="M1024.82,501.45c.46,0,.84,.38,.84,.84s-.38,.84-.84,.84-.84-.38-.84-.84,.38-.84,.84-.84m0-3.34c-2.31,0-4.18,1.87-4.18,4.18s1.87,4.18,4.18,4.18,4.18-1.87,4.18-4.18-1.87-4.18-4.18-4.18"/><line class="g" x1="1049.9" y1="547.84" x2="1049.9" y2="527.78"/><line class="g" x1="1064.95" y1="548.68" x2="1064.95" y2="527.78"/><line class="g" x1="1133.49" y1="548.68" x2="1133.49" y2="527.78"/><line class="g" x1="1148.53" y1="548.68" x2="1148.53" y2="527.78"/><line class="h" x1="1089.27" y1="475.87" x2="1077.74" y2="498.37"/><line class="h" x1="1067.83" y1="479.99" x2="1089.81" y2="481.91"/><line class="h" x1="1076.01" y1="473.79" x2="1064.49" y2="496.29"/><line class="h" x1="1062.54" y1="490.66" x2="1084.53" y2="492.58"/></g></g><g><path d="M687.44,563.7c-1.97,0-3.69-.06-5.15-.18-1.46-.12-2.78-.3-3.93-.55l.71-5.66c1.9,.26,3.54,.46,4.91,.59,1.37,.13,2.52,.2,3.47,.2,2.38,0,4.1-.2,5.16-.59,1.07-.39,1.6-1.01,1.6-1.86,0-.54-.15-.95-.46-1.25s-.8-.53-1.46-.71l-7.45-2.08c-2.05-.57-3.58-1.35-4.58-2.36-1-1-1.5-2.41-1.5-4.24,0-2.8,1.14-4.86,3.41-6.19,2.27-1.33,5.81-1.99,10.61-1.99,1.17,0,2.33,.04,3.48,.12,1.15,.08,2.35,.2,3.6,.37l-.63,5.47c-1.42-.13-2.66-.22-3.72-.27-1.07-.05-2.02-.07-2.87-.07-2.69,0-4.63,.19-5.85,.56-1.21,.38-1.82,.98-1.82,1.81,0,.55,.18,.96,.54,1.22,.36,.26,.91,.49,1.66,.68l6.25,1.68c2.42,.62,4.22,1.49,5.38,2.61,1.16,1.12,1.75,2.65,1.75,4.59,0,2.77-1.06,4.81-3.19,6.12-2.12,1.31-5.42,1.96-9.9,1.96Z"/><path d="M708.09,542.58v-5.25h20.8v5.25h-20.8Zm4.49,18.36l-4.49-2.98,16.5-18.26,4.3,2.88-16.31,18.36Zm-4.49,2.27v-5.25h21.29v5.25h-21.29Z"/><path d="M734.85,542.8v-5.47h23.93v5.47h-23.93Zm6.32,7.96v-21.24h6.01v21.24h-6.01Zm12.04,12.94c-4.25,0-7.32-.86-9.2-2.59-1.89-1.72-2.83-4.48-2.83-8.28v-3.78h6.01v3.3c0,2,.5,3.46,1.51,4.37,1.01,.91,2.68,1.37,5,1.37,.76,0,1.59-.04,2.47-.13,.88-.09,1.88-.21,3-.35l.59,5.52c-1.09,.2-2.16,.34-3.21,.44s-2.16,.15-3.33,.15Z"/><path d="M765.17,563.21v-25.88h5.4l.59,5.47v20.41h-5.98Zm9.84,0v-18.92c0-1.46-.59-2.2-1.76-2.2-1.4,0-2.1,1.05-2.1,3.15l-1.51-4.69h1.78c.29-2.47,1.67-3.71,4.13-3.71,1.3,0,2.32,.46,3.06,1.39,.74,.93,1.11,2.34,1.11,4.22v20.75h-4.71Zm8.52,0v-18.43c0-1.79-.58-2.69-1.73-2.69-1.38,0-2.08,1.05-2.08,3.15l-1.76-4.69h2.12c.11-1.09,.54-1.98,1.28-2.67,.74-.69,1.76-1.04,3.06-1.04,1.76,0,3.04,.48,3.85,1.44,.81,.96,1.21,2.51,1.21,4.66v20.26h-5.96Z"/><path d="M794.17,548.64v-5.47h24.9v5.47h-24.9Z"/><path d="M825.01,563.21v-36.62h6.03v36.18l-6.03,.44Zm7.18,.49c-1.21,0-2.4-.04-3.58-.13-1.18-.09-2.38-.21-3.6-.35l2.25-5.83c.86,.41,1.81,.65,2.86,.72,1.04,.07,2.08,.11,3.1,.11,2.88,0,5.11-.84,6.68-2.51,1.57-1.68,2.36-4.05,2.36-7.13,0-1.99-.45-3.52-1.35-4.6-.9-1.08-2.19-1.62-3.87-1.62-3.99,0-5.98,2.11-5.98,6.32l-1.51-6.64h2.12c.36-3.45,2.43-5.18,6.23-5.18,3.34,0,5.92,1.02,7.74,3.05,1.82,2.04,2.73,4.92,2.73,8.67,0,4.8-1.41,8.52-4.22,11.17-2.82,2.64-6.8,3.97-11.94,3.97Z"/><path d="M852.72,532.06v-5.47h7.89v5.47h-7.89Zm16.36,31.64c-3.16,0-5.43-.86-6.82-2.59-1.39-1.72-2.09-4.48-2.09-8.28v-26.25h6.01v26c0,1.19,.12,2.16,.37,2.92,.24,.76,.71,1.32,1.4,1.67,.69,.36,1.72,.54,3.09,.54s3.17-.31,5.32-.93l.68,5.88c-1.35,.36-2.66,.62-3.92,.78-1.26,.16-2.61,.24-4.04,.24Z"/><path d="M894.52,563.7c-3.66,0-6.51-1.17-8.53-3.52-2.03-2.34-3.04-5.65-3.04-9.91s1.01-7.59,3.04-9.92c2.03-2.34,4.87-3.5,8.53-3.5s6.53,1.17,8.54,3.5c2.02,2.33,3.03,5.64,3.03,9.92s-1.01,7.57-3.03,9.91c-2.02,2.34-4.87,3.52-8.54,3.52Zm0-5.62c1.72,0,3.05-.68,3.98-2.04,.93-1.36,1.39-3.28,1.39-5.77s-.47-4.43-1.4-5.79c-.94-1.35-2.26-2.03-3.97-2.03s-3.03,.68-3.97,2.03c-.94,1.35-1.4,3.28-1.4,5.79s.47,4.42,1.4,5.77c.94,1.36,2.26,2.04,3.97,2.04Z"/><path d="M921.49,563.7c-3.29,0-5.81-1.14-7.58-3.42-1.77-2.28-2.65-5.57-2.65-9.89s.88-7.73,2.65-10.06c1.77-2.33,4.3-3.49,7.61-3.49,1.99,0,3.54,.44,4.65,1.32,1.12,.88,1.8,2.17,2.06,3.86h1.95l-1.61,7.91c0-2.57-.46-4.48-1.39-5.72-.93-1.25-2.3-1.87-4.13-1.87s-3.25,.69-4.22,2.08c-.98,1.38-1.46,3.38-1.46,5.98s.48,4.52,1.44,5.83c.96,1.32,2.38,1.98,4.25,1.98s3.36-.62,4.22-1.86c.86-1.24,1.29-3.14,1.29-5.71l1.76,7.89h-2.27c-.23,1.69-.91,2.98-2.05,3.86-1.14,.88-2.65,1.32-4.52,1.32Zm-7.89,11.18l-.24-5.35,8.3-.24c2.41-.08,4.16-.75,5.25-2.01,1.09-1.26,1.64-3.12,1.66-5.58v-18.9l.49-5.47h5.54v23.58c0,4.61-1.07,8-3.21,10.19-2.14,2.19-5.55,3.36-10.22,3.53l-7.57,.24Z"/></g></svg>