<?xml version="1.0" encoding="UTF-8"?><svg id="a" xmlns="http://www.w3.org/2000/svg" viewBox="0 0 1280 640"><defs><style>.b{fill:#fff;}.c{fill:#1d9bf0;}.d{fill:#ff87ff;}.e{fill:#5affff;}.f{fill:#ff0;}</style></defs><rect class="b" width="1280" height="640"/><g><polyline class="e" points="101.02 96.81 125.6 81.13 123.5 120.78"/><polyline class="f" points="133.22 116.3 167.55 124.77 138.31 146.81"/><polyline class="d" points="101.02 119.35 122.63 141.73 90 158.68"/></g><g><path d="M191.86,111.54h-10.37v-4.66h26.35v4.66h-10.42v30.67h-5.57v-30.67Z"/><path d="M211.58,129.06c0-8.83,5.9-13.92,12.43-13.92s12.43,5.09,12.43,13.92-5.9,13.78-12.43,13.78-12.43-5.04-12.43-13.78Zm19.2,0c0-5.62-2.59-9.36-6.77-9.36s-6.72,3.74-6.72,9.36,2.59,9.27,6.72,9.27,6.77-3.7,6.77-9.27Z"/><path d="M242.93,103.95h5.38v24.67h.14l10.37-12.82h6.1l-8.98,10.71,9.99,15.7h-6l-7.15-11.95-4.46,5.14v6.82h-5.38v-38.26Z"/><path d="M282.14,143.8c-2.06,5.66-4.85,9.46-10.42,9.46-1.34,0-2.4-.19-3.31-.53l1.06-4.32c.48,.14,1.25,.38,1.92,.38,2.88,0,4.56-2.11,5.52-4.94l.53-1.82-10.46-26.21h5.67l4.9,13.59c.77,2.35,1.58,4.99,2.4,7.44h.24l2.06-7.44,4.22-13.59h5.38l-9.7,27.99Z"/><path d="M294.77,129.06c0-8.83,5.9-13.92,12.43-13.92s12.43,5.09,12.43,13.92-5.91,13.78-12.43,13.78-12.43-5.04-12.43-13.78Zm19.2,0c0-5.62-2.59-9.36-6.77-9.36s-6.72,3.74-6.72,9.36,2.59,9.27,6.72,9.27,6.77-3.7,6.77-9.27Z"/><path d="M351.7,111.54h-16.61v-4.66h22.75v3.36c-8.3,10.37-9.6,18.15-10.18,31.97h-5.67c.62-12.91,2.88-21.17,9.7-30.67Z"/><path d="M365.13,133.57v-13.35h-3.84v-4.13l4.08-.29,.62-7.3h4.66v7.3h6.86v4.42h-6.86v13.39c0,3.17,1.1,4.8,3.84,4.8,.91,0,2.06-.29,2.83-.62l1.01,4.08c-1.49,.48-3.26,.96-5.18,.96-5.95,0-8.02-3.7-8.02-9.26Z"/><path d="M383.28,103.95h5.47v10.13l-.19,5.23c2.3-2.21,4.94-4.18,8.54-4.18,5.62,0,8.11,3.74,8.11,10.46v16.61h-5.52v-15.94c0-4.56-1.34-6.38-4.46-6.38-2.45,0-4.13,1.25-6.48,3.6v18.72h-5.47v-38.26Z"/><path d="M437.76,122.29l-2.78,4.27c-2.54-1.82-7.63-5.09-10.71-6.72l2.74-4.13c3.02,1.63,8.5,4.99,10.75,6.58Zm4.85,11.28c8.02-4.56,14.5-10.99,18.38-17.81l2.88,5.09c-4.27,6.53-10.95,12.67-18.72,17.19-4.85,2.83-11.57,5.14-15.94,5.95l-2.83-4.94c5.33-.91,11.18-2.69,16.23-5.47Zm2.35-21.89l-2.83,4.13c-2.45-1.78-7.58-5.18-10.56-6.86l2.74-4.13c2.98,1.68,8.4,5.23,10.66,6.86Z"/><path d="M506.83,109.91c-.34,.48-1.06,1.68-1.39,2.5-1.68,3.94-4.51,9.36-7.87,13.68,4.94,4.22,10.75,10.42,13.73,14.07l-4.27,3.74c-3.12-4.32-7.92-9.6-12.67-14.02-5.14,5.47-11.57,10.61-18.48,13.78l-3.89-4.03c7.78-2.98,14.98-8.74,19.73-14.06,3.26-3.65,6.48-8.93,7.63-12.67h-17.62c-1.87,0-4.46,.24-5.23,.29v-5.42c.96,.14,3.74,.34,5.23,.34h17.81c1.78,0,3.36-.19,4.18-.48l3.12,2.3Z"/><path d="M558.14,111.49c-.43,.82-1.01,2.02-1.34,2.98-1.2,3.98-3.55,9.07-6.82,13.78,1.78,1.15,3.41,2.21,4.61,3.07l-3.36,4.42c-1.15-.96-2.74-2.11-4.56-3.36-4.27,4.85-10.13,9.31-18.29,12.43l-4.37-3.84c8.45-2.54,14.31-6.91,18.48-11.38-3.55-2.3-7.25-4.56-9.84-6l3.17-3.6c2.69,1.39,6.38,3.5,9.89,5.62,2.64-3.79,4.8-8.3,5.66-11.67h-15.27c-3.17,4.37-7.49,8.98-12.62,12.48l-4.13-3.12c8.35-5.14,13.11-12.1,15.36-16.37,.62-.96,1.49-2.93,1.82-4.32l5.47,1.73c-.91,1.44-1.97,3.26-2.45,4.22l-.58,1.06h11.67c1.34,0,2.69-.19,3.6-.53l3.89,2.4Z"/><path d="M568.41,120.8c1.54,.14,4.51,.29,7.1,.29h26.07c2.35,0,4.22-.19,5.38-.29v5.9c-1.06-.05-3.22-.19-5.33-.19h-26.11c-2.69,0-5.52,.1-7.1,.19v-5.9Z"/><path d="M649.87,110.91c-.34,.43-1.06,1.68-1.39,2.45-1.68,3.98-4.56,9.41-7.87,13.73,4.94,4.22,10.75,10.42,13.73,14.06l-4.27,3.7c-3.12-4.27-7.97-9.6-12.67-13.97-5.14,5.47-11.57,10.61-18.48,13.78l-3.89-4.08c7.78-2.93,14.98-8.74,19.73-14.02,3.26-3.65,6.48-8.93,7.63-12.67h-17.62c-1.87,0-4.46,.24-5.23,.29v-5.42c.96,.14,3.75,.34,5.23,.34h17.81c1.78,0,3.36-.24,4.18-.53l1.87,1.44c-.96-1.92-2.3-4.27-3.46-5.95l3.12-1.3c1.2,1.82,2.98,4.8,3.84,6.58l-2.74,1.2,.48,.38Zm4.13-9.84c1.25,1.78,3.07,4.8,3.94,6.53l-3.12,1.39c-1.01-2.06-2.59-4.8-3.89-6.62l3.07-1.3Z"/><path d="M798.19,140.73c0,2.54-.62,3.79-2.26,4.46-1.63,.72-4.22,.77-8.45,.77-.14-1.1-.82-3.07-1.39-4.13,2.74,.1,5.66,.05,6.48,.05,.86-.05,1.15-.34,1.15-1.15v-32.31h-26.74v11.71c0,7.78-.82,18.91-6.05,26.16-.77-.86-2.64-2.35-3.65-2.88,4.8-6.67,5.28-16.18,5.28-23.28v-15.89h35.62v36.48Zm-20.4-20.35v-3.98h-7.92v-3.5h7.92v-3.7h4.22v3.7h8.35v3.5h-8.35v3.98h9.41v3.6h-22.61v-3.6h8.98Zm-2.88,19.73v2.69h-4.03v-15.36h18.39v12.67h-14.35Zm0-9.22v5.71h10.22v-5.71h-10.22Z"/><path d="M849.36,135.4h-16.85v10.61h-4.61v-10.61h-21.84v-4.32h7.73v-12.67h14.11v-6.62h-10.99c-2.06,3.55-4.46,6.72-6.91,9.12-.86-.77-2.78-2.21-3.89-2.88,4.42-3.79,8.26-9.89,10.46-16.27l4.51,1.2c-.58,1.49-1.25,3.07-1.87,4.51h27.79v4.32h-14.5v6.62h13.39v4.18h-13.39v8.5h16.85v4.32Zm-21.46-4.32v-8.5h-9.65v8.5h9.65Z"/><path d="M890.59,141.97c-2.69-2.5-6.34-5.18-10.61-6.91,0,.96,.05,1.78,.05,2.45,0,3.6-2.59,6.91-8.78,6.91-7.2,0-11.09-2.64-11.09-7.44,0-4.51,4.27-7.68,11.38-7.68,1.2,0,2.35,.1,3.5,.19-.1-1.78-.14-3.7-.19-5.42h-2.59c-3.02,0-8.4-.24-11.71-.62l.05-4.51c2.98,.58,8.83,.91,11.71,.91h2.45v-6h-2.35c-3.17,0-8.02-.34-10.8-.72v-4.37c2.93,.53,7.68,.91,10.75,.91h2.45v-2.69c0-.86-.1-2.26-.19-3.02h5.09c-.1,.86-.24,1.92-.29,3.22,0,.53-.05,1.39-.05,2.35,3.98-.19,7.68-.58,11.86-1.2l.05,4.37c-3.46,.34-7.44,.77-11.95,.96v6.05c4.7-.24,8.88-.67,12.96-1.25l.05,4.51c-4.42,.53-8.35,.82-12.91,1.01,.05,2.16,.19,4.42,.34,6.48,6.14,1.73,10.85,5.09,13.58,7.34l-2.74,4.18Zm-15.41-8.35c-1.39-.24-2.78-.38-4.27-.38-4.03,0-6.19,1.54-6.19,3.5s1.78,3.41,5.86,3.41c2.69,0,4.66-.77,4.66-3.84,0-.67,0-1.58-.05-2.69Z"/><path d="M907.92,109.86c3.46-.34,11.95-1.15,20.69-1.87,5.04-.43,9.84-.72,13.06-.82l.05,4.85c-2.64,0-6.77,.05-9.26,.67-6.29,1.92-10.46,8.64-10.46,14.26,0,8.69,8.06,11.52,15.89,11.9l-1.73,5.09c-9.31-.48-19.06-5.47-19.06-15.94,0-7.2,4.18-12.96,8.02-15.41-4.13,.43-15.79,1.58-21.12,2.74l-.48-5.23c1.82-.05,3.46-.14,4.42-.24Zm31.01,14.02l-2.98,1.34c-1.15-2.45-2.4-4.66-3.84-6.72l2.88-1.25c1.15,1.68,2.93,4.61,3.94,6.62Zm5.47-2.21l-2.93,1.44c-1.25-2.45-2.5-4.56-4.03-6.62l2.88-1.3c1.15,1.63,3.02,4.51,4.08,6.48Z"/></g><g><polyline class="e" points="975.47 96.81 1000.05 81.13 997.95 120.78"/><polyline class="f" points="1007.67 116.3 1042 124.77 1012.76 146.81"/><polyline class="d" points="975.47 119.35 997.08 141.73 964.45 158.68"/></g><g><path d="M968.27,569.94c-1.97,0-3.69-.06-5.15-.18-1.46-.12-2.78-.3-3.93-.55l.71-5.66c1.9,.26,3.54,.46,4.91,.59,1.37,.13,2.52,.2,3.47,.2,2.33,0,4.01-.2,5.05-.59,1.04-.39,1.56-1.01,1.56-1.86,0-.54-.16-.95-.46-1.25-.31-.29-.8-.53-1.46-.71l-7.3-2.08c-2.05-.57-3.58-1.35-4.58-2.36-1-1-1.5-2.41-1.5-4.24,0-2.8,1.13-4.86,3.41-6.19,2.27-1.33,5.81-1.99,10.61-1.99,1.17,0,2.33,.04,3.48,.12,1.15,.08,2.35,.2,3.6,.37l-.63,5.47c-1.42-.13-2.66-.22-3.72-.27-1.07-.05-2.02-.07-2.87-.07-2.64,0-4.55,.19-5.74,.56-1.19,.38-1.78,.98-1.78,1.81,0,.55,.18,.96,.54,1.22,.36,.26,.91,.49,1.66,.68l6.1,1.68c2.42,.63,4.22,1.51,5.38,2.62,1.16,1.11,1.75,2.64,1.75,4.58,0,2.77-1.06,4.81-3.19,6.12-2.12,1.31-5.42,1.96-9.9,1.96Z"/><path d="M988.83,548.7v-5.13h20.9v5.13h-20.9Zm4.49,18.6l-4.49-2.98,16.6-18.51,4.3,2.88-16.41,18.6Zm-4.49,2.15v-5.13h21.39v5.13h-21.39Z"/><path d="M1015.68,548.92v-5.35h23.93v5.35h-23.93Zm6.32,8.08v-21.24h6.01v21.24h-6.01Zm12.04,12.94c-4.25,0-7.32-.86-9.2-2.59-1.89-1.72-2.83-4.48-2.83-8.28v-3.78h6.01v3.3c0,2,.5,3.46,1.51,4.37,1.01,.91,2.68,1.37,5,1.37,.76,0,1.59-.04,2.47-.13,.88-.09,1.88-.21,3-.35l.59,5.52c-1.09,.2-2.16,.34-3.21,.44-1.05,.1-2.16,.15-3.33,.15Z"/><path d="M1046.01,569.45v-25.88h5.4l.59,5.47v20.41h-5.98Zm9.84,0v-18.92c0-1.46-.59-2.2-1.76-2.2-1.4,0-2.1,1.05-2.1,3.15l-1.51-4.69h1.78c.29-2.47,1.67-3.71,4.13-3.71,1.3,0,2.32,.46,3.06,1.39,.74,.93,1.11,2.34,1.11,4.22v20.75h-4.71Zm8.52,0v-18.43c0-1.79-.58-2.69-1.73-2.69-1.38,0-2.08,1.05-2.08,3.15l-1.76-4.69h2.12c.11-1.09,.54-1.98,1.28-2.67,.74-.69,1.76-1.04,3.06-1.04,1.76,0,3.04,.48,3.84,1.44,.81,.96,1.21,2.51,1.21,4.66v20.26h-5.96Z"/><path d="M1075.01,554.83v-5.37h24.9v5.37h-24.9Z"/><path d="M1105.84,569.45v-36.62h6.03v36.18l-6.03,.44Zm7.18,.49c-1.21,0-2.4-.04-3.58-.13-1.18-.09-2.38-.21-3.6-.35l2.25-5.83c.86,.41,1.81,.65,2.86,.72,1.04,.07,2.08,.11,3.1,.11,2.85,0,5.04-.84,6.59-2.51,1.55-1.68,2.32-4.05,2.32-7.13,0-1.99-.44-3.52-1.33-4.6-.89-1.08-2.15-1.62-3.77-1.62-3.99,0-5.98,2.11-5.98,6.32l-1.51-6.64h2.12c.36-3.45,2.43-5.18,6.23-5.18,3.34,0,5.92,1.02,7.74,3.05,1.82,2.04,2.73,4.92,2.73,8.67,0,4.8-1.41,8.52-4.22,11.17-2.82,2.64-6.8,3.97-11.94,3.97Z"/><path d="M1146.05,569.94c-3.66,0-6.51-1.17-8.53-3.52-2.03-2.34-3.04-5.65-3.04-9.91s1.01-7.59,3.04-9.92c2.03-2.34,4.87-3.5,8.53-3.5s6.53,1.17,8.54,3.5c2.02,2.33,3.03,5.64,3.03,9.92s-1.01,7.57-3.03,9.91c-2.02,2.34-4.87,3.52-8.54,3.52Zm0-5.62c1.68,0,2.97-.68,3.87-2.04,.9-1.36,1.36-3.28,1.36-5.77s-.45-4.43-1.36-5.79c-.9-1.35-2.19-2.03-3.87-2.03s-2.95,.68-3.86,2.03c-.91,1.35-1.37,3.28-1.37,5.79s.46,4.42,1.37,5.77c.91,1.36,2.2,2.04,3.86,2.04Z"/><path d="M1162.17,548.92v-5.35h23.93v5.35h-23.93Zm6.32,8.08v-21.24h6.01v21.24h-6.01Zm12.04,12.94c-4.25,0-7.32-.86-9.2-2.59-1.89-1.72-2.83-4.48-2.83-8.28v-3.78h6.01v3.3c0,2,.5,3.46,1.51,4.37,1.01,.91,2.68,1.37,5,1.37,.76,0,1.59-.04,2.47-.13,.88-.09,1.88-.21,3-.35l.59,5.52c-1.09,.2-2.16,.34-3.21,.44-1.05,.1-2.16,.15-3.33,.15Z"/></g><g><path d="M393.82,327.76c-.43,.94-.94,2.66-1.37,3.96,8.64,2.59,14.04,9.07,14.04,17.14,0,10.15-6.48,19.44-23.4,22.11l-3.82-5.98c13.25-1.44,20.16-8.21,20.16-16.49,0-4.9-3.1-9.29-9-11.16-3.96,9.94-9.65,17.57-15.41,22.47,.5,1.94,1.08,3.82,1.66,5.54l-6.55,1.94c-.36-1.08-.72-2.23-1.01-3.46-3.67,2.02-7.78,3.46-11.59,3.46-4.97,0-9-3.02-9-9.65,0-9.15,7.85-18.72,17.71-23.26,.14-3.31,.43-6.62,.72-9.72h-3.46c-3.38,0-8.93-.29-11.95-.5l-.22-6.62c2.45,.36,8.71,.94,12.38,.94h3.89l.5-4.82c.07-1.22,.22-2.74,.14-3.74l7.49,.22c-.36,1.08-.65,2.38-.86,3.38-.29,1.37-.58,3.02-.86,4.75,8.93-.36,17.07-1.3,24.63-3.02l.07,6.62c-7.2,1.22-16.71,2.16-25.49,2.59-.22,2.45-.43,5.04-.65,7.71,3.82-1.01,7.85-1.58,11.38-1.58,.72,0,1.37,0,2.02,.07,.36-1.3,.72-3.38,.79-4.61l7.06,1.73Zm-26.21,29.45c-.94-5.04-1.58-10.58-1.58-16.06-6.26,3.89-10.73,10.23-10.73,15.19,0,2.67,1.15,3.96,3.67,3.96s5.47-1.08,8.64-3.1Zm4.75-17.21c0,4.46,.43,8.64,1.08,12.46,4.1-4.03,7.85-9.15,10.66-16.06h-.43c-4.32,0-8.14,.86-11.31,1.87v1.73Z"/><path d="M470.5,324.88c-1.8,1.08-3.82,2.16-6.12,3.31-4.68,2.38-14.11,6.84-20.88,11.31-6.34,4.1-10.3,8.57-10.3,13.75,0,5.54,5.26,8.78,15.91,8.78,7.56,0,17.21-1.08,23.04-2.45l-.07,8.07c-5.62,1.01-13.61,1.8-22.68,1.8-13.75,0-23.91-4.03-23.91-15.41,0-7.56,4.82-13.39,12.1-18.58-3.24-6.05-6.84-14.04-10.15-21.67l7.13-2.88c2.81,7.63,6.26,14.91,9.29,20.52,6.26-3.74,13.32-7.27,16.99-9.36,2.38-1.37,4.1-2.38,5.76-3.74l3.89,6.55Z"/></g><path d="M960.23,310.26v60.41h-7.13v-4.39h-33.92v4.68h-6.84v-60.7h47.88Zm-41.04,6.77v17.57h33.92v-17.57h-33.92Zm33.92,42.48v-18.29h-33.92v18.29h33.92Z"/><g><path class="c" d="M109.2,556.7h-6.75l-1.35,10.95h-3.65l1.35-10.95h-4.35v-3.95h4.85l.9-7.45h-4.65v-3.95h5.15l1.2-9.8h3.6l-1.2,9.8h6.75l1.2-9.8h3.65l-1.2,9.8h4.4v3.95h-4.9l-.9,7.45h4.65v3.95h-5.1l-1.35,10.95h-3.65l1.35-10.95Zm1.35-11.4h-6.75l-.9,7.45h6.75l.9-7.45Z"/><path class="c" d="M134.15,556.8v-11.6h-7.4v-4.45l7.65-.3,.75-8.6h4.9v8.6h12.65v4.75h-12.65v11.6c0,4.6,1.65,6.8,6.4,6.8,2.4,0,4.3-.45,6.15-1.15l1.15,4.3c-2.45,.85-5.15,1.55-8.7,1.55-8.15,0-10.9-4.65-10.9-11.5Z"/><path class="c" d="M179.8,537.35h-19.4v-5.05h26v3.65c-9.25,10.4-11.2,17.85-11.8,31.7h-6.05c.65-12.8,3.45-20.65,11.25-30.3Z"/><path class="c" d="M193.6,564.1l2.65-3.8c3.2,2.2,6.9,3.5,11.5,3.5,3.95,0,5.9-1.55,5.9-3.5,0-1.85-1.2-2.95-7.8-4.35-7.2-1.45-10.55-4-10.55-8.15,0-4.6,4.2-8,11.8-8,4.35,0,8.45,1.75,11.2,3.55l-2.7,3.7c-2.65-1.75-5.75-2.75-9.05-2.75-3.85,0-5.35,1.45-5.35,3.25,0,2,2.1,2.8,7.3,3.9,8.8,1.95,11.05,4.25,11.05,8.55,0,4.55-4.45,8.3-12.6,8.3-5.15,0-9.95-1.9-13.35-4.2Z"/><path class="c" d="M275.95,556.7h-6.75l-1.35,10.95h-3.65l1.35-10.95h-4.35v-3.95h4.85l.9-7.45h-4.65v-3.95h5.15l1.2-9.8h3.6l-1.2,9.8h6.75l1.2-9.8h3.65l-1.2,9.8h4.4v3.95h-4.9l-.9,7.45h4.65v3.95h-5.1l-1.35,10.95h-3.65l1.35-10.95Zm1.35-11.4h-6.75l-.9,7.45h6.75l.9-7.45Z"/><path class="c" d="M344.05,540.1c1.95,0,3.9-.1,4.8-.2v5.35c-.9-.1-3.1-.15-4.85-.15h-12.35c-.2,10.55-3.65,18.7-14.05,24.85l-4.9-3.65c9.65-4.45,13.3-11.8,13.55-21.2h-13.85c-2,0-3.9,.05-5.15,.15v-5.4c1.2,.1,3.15,.25,5.05,.25h13.95v-6.15c0-1.6-.2-4.1-.55-5.4h6.3c-.25,1.3-.35,3.9-.35,5.4v6.15h12.4Z"/><path class="c" d="M394.05,540.1c1.95,0,3.9-.1,4.8-.2v5.35c-.9-.1-3.1-.15-4.85-.15h-12.35c-.2,10.55-3.65,18.7-14.05,24.85l-4.9-3.65c9.65-4.45,13.3-11.8,13.55-21.2h-13.85c-2,0-3.9,.05-5.15,.15v-5.4c1.2,.1,3.15,.25,5.05,.25h13.95v-6.15c0-1.6-.2-4.1-.55-5.4h6.3c-.25,1.3-.35,3.9-.35,5.4v6.15h12.4Z"/><path class="c" d="M421.4,546.9l-2.9,4.45c-2.65-1.9-7.95-5.3-11.15-7l2.85-4.3c3.15,1.7,8.85,5.2,11.2,6.85Zm5.05,11.75c8.35-4.75,15.1-11.45,19.15-18.55l3,5.3c-4.45,6.8-11.4,13.2-19.5,17.9-5.05,2.95-12.05,5.35-16.6,6.2l-2.95-5.15c5.55-.95,11.65-2.8,16.9-5.7Zm2.45-22.8l-2.95,4.3c-2.55-1.85-7.9-5.4-11-7.15l2.85-4.3c3.1,1.75,8.75,5.45,11.1,7.15Z"/><path class="c" d="M493.35,534c-.35,.5-1.1,1.75-1.45,2.6-1.75,4.1-4.7,9.75-8.2,14.25,5.15,4.4,11.2,10.85,14.3,14.65l-4.45,3.9c-3.25-4.5-8.25-10-13.2-14.6-5.35,5.7-12.05,11.05-19.25,14.35l-4.05-4.2c8.1-3.1,15.6-9.1,20.55-14.65,3.4-3.8,6.75-9.3,7.95-13.2h-18.35c-1.95,0-4.65,.25-5.45,.3v-5.65c1,.15,3.9,.35,5.45,.35h18.55c1.85,0,3.5-.2,4.35-.5l3.25,2.4Z"/></g><rect class="d" x="190" y="397" width="900" height="20" rx="8.62" ry="8.62"/></svg>